<?xml version="1.0" encoding="UTF-8"?>
<svg width="64px" height="64px" viewBox="0 0 64 64" version="1.1" xmlns="http://www.w3.org/2000/svg" xmlns:xlink="http://www.w3.org/1999/xlink">
    <!-- Generator: Sketch 43.2 (39069) - http://www.bohemiancoding.com/sketch -->
    <title>Artboard</title>
    <desc>Created with Sketch.</desc>
    <defs></defs>
    <g id="TN-Android---Phone" stroke="none" stroke-width="1" fill="none" fill-rule="evenodd">
        <g id="Artboard" fill="#767676">
            <path d="M38.5,28 C36.5645,28 35,29.5645 35,31.5 C35,33.4355 36.5645,35 38.5,35 C40.4355,35 42,33.4355 42,31.5 C42,29.5645 40.4355,28 38.5,28" id="Fill-1881"></path>
            <path d="M22,31.5 C22,33.4355 23.5645,35 25.5,35 C27.4355,35 29,33.4355 29,31.5 C29,29.5645 27.4355,28 25.5,28 C23.5645,28 22,29.5645 22,31.5 Z" id="Fill-1882"></path>
            <path d="M47.0624,21.4624 L42.5376,16.9376 L48.9376,10.5376 L53.4624,15.0624 L47.0624,21.4624 Z M48.9376,53.4624 L42.5376,47.0624 L47.0624,42.5376 L53.4624,48.9376 L48.9376,53.4624 Z M39,48 L25,48 L25,43 C21.1325,40.767 19,36.6481111 19,31.8888889 C19,24.771 24.82075,19 32,19 C39.17925,19 45,24.771 45,31.8888889 C45,36.6481111 42.8675,40.767 39,43 L39,48 Z M35,43 L35,46 L37,46 L37,43 L35,43 Z M32,35 L30,39 L34,39 L32,35 Z M31,43 L31,46 L33,46 L33,43 L31,43 Z M27,43 L27,46 L29,46 L29,43 L27,43 Z M15.0624,53.4624 L10.5376,48.9376 L16.9376,42.5376 L21.4624,47.0624 L15.0624,53.4624 Z M15.0624,10.5376 L21.4624,16.9376 L16.9376,21.4624 L10.5376,15.0624 L15.0624,10.5376 Z M32,0 C14.3296,0 0,14.3296 0,32 C0,49.6704 14.3296,64 32,64 C49.6704,64 64,49.6704 64,32 C64,14.3296 49.6704,0 32,0 L32,0 Z" id="Fill-1883"></path>
        </g>
    </g>
</svg>